<svg xmlns="http://www.w3.org/2000/svg" xmlns:xlink="http://www.w3.org/1999/xlink" width="271.371" height="36.72" viewBox="0 0 271.371 36.72">
  <defs>
    <linearGradient id="linear-gradient" x1="0.5" x2="0.5" y2="1" gradientUnits="objectBoundingBox">
      <stop offset="0" stop-color="#ff9f6d"/>
      <stop offset="1" stop-color="#5e2000"/>
    </linearGradient>
  </defs>
  <path id="Path_4" data-name="Path 4" d="M41.412-19.38a10.45,10.45,0,0,0,2.805-6.936c0-5.253-2.5-9.384-10.608-9.384H2.193V0h32.64c8.109,0,11.628-4.386,11.628-10.4A10.082,10.082,0,0,0,41.412-19.38ZM11.373-29.07H30.294c2.5,0,4.743,0,4.743,3.672,0,3.723-2.244,3.723-4.692,3.723H11.373ZM32.589-7.089H11.373v-7.548H32.589c2.448,0,4.692,0,4.692,3.774S35.037-7.089,32.589-7.089Zm58.6-15.5c0-7.956-5.559-13.107-13.668-13.107H49.47V0h9.18V-9.537H73.44L79.2,0H90.015L83.436-10.608C88.23-12.495,91.188-16.779,91.188-22.593ZM58.65-28H74.97c2.754,0,7.038,0,7.038,5.406,0,5.355-4.284,5.355-7.038,5.355H58.65ZM116.127.51c15.657,0,22.44-6.579,22.44-18.411,0-11.781-6.783-18.309-22.44-18.309-15.708,0-22.44,6.477-22.44,18.309C93.687-6.018,100.419.51,116.127.51Zm0-7.7c-9.537,0-13.26-3.366-13.26-10.71,0-7.293,3.672-10.608,13.26-10.608s13.26,3.366,13.26,10.608C129.387-10.608,125.664-7.191,116.127-7.191ZM178.7-35.7V-8.874L154.326-35.7H141.882V0h9.18V-26.775L175.389,0h12.5V-35.7ZM232-35.7h-40.29V-28H218.79L191.709-7.7V0H232V-7.7H204.867L232-28Zm41.565,7.293V-35.7h-37.74V0h37.74V-7.293H245v-7.242h28.56v-6.63H245v-7.242Z" transform="translate(-2.193 36.21)" fill="url(#linear-gradient)"/>
</svg>
