<svg xmlns="http://www.w3.org/2000/svg" xmlns:xlink="http://www.w3.org/1999/xlink" width="225.063" height="36.72" viewBox="0 0 225.063 36.72">
  <defs>
    <linearGradient id="linear-gradient" x1="0.5" x2="0.5" y2="1" gradientUnits="objectBoundingBox">
      <stop offset="0" stop-color="#fff"/>
      <stop offset="1" stop-color="gray"/>
    </linearGradient>
  </defs>
  <path id="Path_3" data-name="Path 3" d="M-112.531-12.291c0,10.3,8.721,12.8,23.358,12.8,13.209,0,22.236-1.938,22.236-11.475,0-9.027-8.721-9.792-22.8-10.557-10.4-.612-12.546-1.122-12.546-3.876,0-2.652,2.142-3.519,11.169-3.519,9.537,0,13.464.969,13.464,4.9h9.18c0-8.823-8.16-12.189-21.624-12.189-13.362,0-21.369,2.5-21.369,10.353,0,8.007,6.171,10.455,21.726,11.169,11.577.561,13.617,1.071,13.617,4.029,0,2.8-2.907,3.876-12.546,3.876-11.628,0-14.688-1.734-14.688-5.508ZM-54.442-35.7h-9.18V0h9.18Zm13.26,28v-28h-9.18V0h36.72V-7.7Zm58.446-28L2.933-6.783-11.4-35.7H-21.7L-3.34,0H9.206l18.36-35.7ZM67.5-28.407V-35.7H29.759V0H67.5V-7.293H38.939v-7.242H67.5v-6.63H38.939v-7.242Zm45.033,5.814c0-7.956-5.559-13.107-13.668-13.107H70.813V0h9.18V-9.537h14.79L100.547,0h10.812L104.78-10.608C109.574-12.495,112.532-16.779,112.532-22.593ZM79.993-28h16.32c2.754,0,7.038,0,7.038,5.406,0,5.355-4.284,5.355-7.038,5.355H79.993Z" transform="translate(112.531 36.21)" fill="url(#linear-gradient)"/>
</svg>
